<svg width="65" height="38" viewBox="0 0 65 38" fill="none" xmlns="http://www.w3.org/2000/svg">
<path d="M1.2334 20.2666C0.681114 20.2666 0.233398 19.8189 0.233398 19.2666C0.233398 18.7143 0.681114 18.2666 1.2334 18.2666L1.2334 20.2666ZM63.9325 19.2666L64.6396 18.5595C64.8271 18.747 64.9325 19.0014 64.9325 19.2666C64.9325 19.5318 64.8271 19.7861 64.6396 19.9737L63.9325 19.2666ZM45.5089 2.25719C45.1184 1.86667 45.1184 1.2335 45.5089 0.842976C45.8994 0.452452 46.5326 0.452452 46.9231 0.842976L45.5089 2.25719ZM46.9231 37.6901C46.5326 38.0807 45.8994 38.0807 45.5089 37.6901C45.1184 37.2996 45.1184 36.6664 45.5089 36.2759L46.9231 37.6901ZM1.2334 18.2666L63.9325 18.2666V20.2666L1.2334 20.2666L1.2334 18.2666ZM46.9231 0.842976L64.6396 18.5595L63.2254 19.9737L45.5089 2.25719L46.9231 0.842976ZM45.5089 36.2759L63.2254 18.5595L64.6396 19.9737L46.9231 37.6901L45.5089 36.2759Z" fill="#141414"/>
</svg>
