<svg width="65" height="39" viewBox="0 0 65 39" fill="none" xmlns="http://www.w3.org/2000/svg">
<path d="M1.2334 20.6283C0.681114 20.6283 0.233398 20.1805 0.233398 19.6283C0.233398 19.076 0.681114 18.6283 1.2334 18.6283L1.2334 20.6283ZM63.9325 19.6283L64.6396 18.9212C64.8271 19.1087 64.9325 19.363 64.9325 19.6283C64.9325 19.8935 64.8271 20.1478 64.6396 20.3354L63.9325 19.6283ZM45.5089 2.61888C45.1184 2.22836 45.1184 1.5952 45.5089 1.20467C45.8994 0.814146 46.5326 0.814146 46.9231 1.20467L45.5089 2.61888ZM46.9231 38.0518C46.5326 38.4424 45.8994 38.4424 45.5089 38.0518C45.1184 37.6613 45.1184 37.0281 45.5089 36.6376L46.9231 38.0518ZM1.2334 18.6283L63.9325 18.6283V20.6283L1.2334 20.6283L1.2334 18.6283ZM46.9231 1.20467L64.6396 18.9212L63.2254 20.3354L45.5089 2.61888L46.9231 1.20467ZM45.5089 36.6376L63.2254 18.9212L64.6396 20.3354L46.9231 38.0518L45.5089 36.6376Z" fill="#B506FC"/>
</svg>
