<svg width="65" height="38" viewBox="0 0 65 38" fill="none" xmlns="http://www.w3.org/2000/svg">
<path d="M1.2334 19.9474C0.681114 19.9474 0.233398 19.4996 0.233398 18.9474C0.233398 18.3951 0.681114 17.9474 1.2334 17.9474L1.2334 19.9474ZM63.9325 18.9474L64.6396 18.2402C64.8271 18.4278 64.9325 18.6821 64.9325 18.9474C64.9325 19.2126 64.8271 19.4669 64.6396 19.6545L63.9325 18.9474ZM45.5089 1.93798C45.1184 1.54745 45.1184 0.914287 45.5089 0.523763C45.8994 0.133238 46.5326 0.133238 46.9231 0.523763L45.5089 1.93798ZM46.9231 37.3709C46.5326 37.7614 45.8994 37.7614 45.5089 37.3709C45.1184 36.9804 45.1184 36.3472 45.5089 35.9567L46.9231 37.3709ZM1.2334 17.9474L63.9325 17.9474V19.9474L1.2334 19.9474L1.2334 17.9474ZM46.9231 0.523763L64.6396 18.2402L63.2254 19.6545L45.5089 1.93798L46.9231 0.523763ZM45.5089 35.9567L63.2254 18.2402L64.6396 19.6545L46.9231 37.3709L45.5089 35.9567Z" fill="#FF0046"/>
</svg>
