<svg width="115" height="116" viewBox="0 0 115 116" fill="none" xmlns="http://www.w3.org/2000/svg">
<path d="M-0.000183105 51.8855C6.16756 51.1203 12.2025 49.679 17.9565 47.5936C26.9248 44.3431 34.9913 39.6079 41.7249 33.716C48.4559 27.8264 53.7092 20.9104 57.2618 13.4058C57.6721 12.5391 58.059 11.666 58.4225 10.7873C59.8036 7.44824 60.8464 4.02683 61.5463 0.560427C61.5604 0.490874 61.5743 0.421304 61.5881 0.351715H10.4354C4.67198 0.351715 -0.000183105 5.02388 -0.000183105 10.7873V10.7949V51.8855Z" fill="#333333"/>
<path d="M104.356 26.4406C104.356 12.0321 92.6751 0.351654 78.2666 0.351654C76.4797 0.351654 74.7347 0.531304 73.0488 0.873527C72.7188 0.940509 72.3911 1.01372 72.0658 1.09303C71.0489 6.83991 69.249 12.4733 66.6939 17.8707C63.5445 24.5237 59.2941 30.7202 54.0911 36.266C52.3629 38.108 50.5297 39.8782 48.5968 41.5695C48.3959 41.7453 48.1941 41.9201 47.9913 42.0939C43.3539 46.0696 38.212 49.5503 32.6748 52.4719C29.1083 54.3537 25.3777 56.0036 21.5124 57.4046C16.2482 59.3125 10.7876 60.7392 5.2176 61.6695C3.48802 61.9584 1.74789 62.1994 -0.000183105 62.3922V79.5886C1.74519 79.5394 3.4853 79.4656 5.2176 79.3674C12.5952 78.9491 19.8314 78.0882 26.7302 76.8023C36.859 74.9143 46.0623 72.1471 53.8145 68.6586C61.5668 65.1701 67.7162 61.0286 71.9117 56.4706C72.3091 56.039 72.6881 55.6044 73.0488 55.1671C73.7812 54.2791 74.438 53.3801 75.018 52.4719L75.0569 52.4109L75.102 52.3395C77.1974 49.013 78.2666 45.5655 78.2666 42.0939C83.7483 42.0939 89.1763 43.1736 94.2407 45.2714C94.7168 45.4686 95.1889 45.6745 95.6566 45.8888C100.995 41.1117 104.356 34.1685 104.356 26.4406Z" fill="url(#paint0_linear)"/>
<path d="M83.6931 115.143C100.983 115.143 115 101.126 115 83.8362C115 66.546 100.983 52.5295 83.6931 52.5295C83.6235 52.5295 83.5539 52.5297 83.4844 52.5302C83.4842 57.4634 81.3248 62.3484 77.1295 66.9062C73.6857 70.6475 68.9255 74.1081 63.0429 77.1574C61.7589 77.823 60.4213 78.4691 59.0323 79.0941C56.9418 80.0349 54.7457 80.9232 52.4544 81.7559C46.2491 84.0112 39.3454 85.859 31.948 87.2378C21.8192 89.1258 10.9632 90.0975 -0.000183105 90.0975V115.143H83.6931Z" fill="url(#paint1_linear)"/>
<defs>
<linearGradient id="paint0_linear" x1="73.0488" y1="0.351654" x2="73.0488" y2="79.5886" gradientUnits="userSpaceOnUse">
<stop stop-color="#FF005C"/>
<stop offset="1" stop-color="#FF002E"/>
</linearGradient>
<linearGradient id="paint1_linear" x1="101.4" y1="61.5637" x2="9.10498" y2="121.412" gradientUnits="userSpaceOnUse">
<stop stop-color="#BD00FF"/>
<stop offset="1" stop-color="#7634E0"/>
</linearGradient>
</defs>
</svg>
