<svg width="131" height="132" viewBox="0 0 131 132" fill="none" xmlns="http://www.w3.org/2000/svg">
<g filter="url(#filter0_d)">
<path d="M8.99969 55.8856C15.1674 55.1203 21.2023 53.6791 26.9563 51.5937C35.9245 48.3432 43.991 43.608 50.7245 37.7162C57.4555 31.8266 62.7087 24.9107 66.2613 17.4061C66.6716 16.5394 67.0585 15.6664 67.422 14.7876C68.8031 11.4486 69.8459 8.0272 70.5458 4.56082C70.5598 4.49127 70.5738 4.4217 70.5875 4.35211H19.4352C13.6718 4.35211 8.99969 9.02425 8.99969 14.7876V14.7952V55.8856Z" fill="#333333"/>
<path d="M113.355 30.4408C113.355 16.0324 101.674 4.35205 87.266 4.35205C85.4791 4.35205 83.7341 4.5317 82.0482 4.87392C81.7182 4.9409 81.3905 5.01411 81.0652 5.09342C80.0483 10.8403 78.2484 16.4736 75.6934 21.871C72.544 28.5239 68.2936 34.7204 63.0906 40.2661C61.3625 42.1081 59.5292 43.8784 57.5963 45.5697C57.3955 45.7454 57.1936 45.9202 56.9908 46.0941C52.3535 50.0697 47.2117 53.5503 41.6745 56.4719C38.108 58.3537 34.3775 60.0037 30.5121 61.4046C25.248 63.3125 19.7874 64.7392 14.2174 65.6695C12.4879 65.9584 10.7478 66.1994 8.99969 66.3921V83.5884C10.7451 83.5392 12.4852 83.4654 14.2174 83.3672C21.595 82.949 28.8311 82.0881 35.7299 80.8022C45.8586 78.9142 55.0619 76.147 62.8141 72.6585C70.5663 69.17 76.7157 65.0286 80.9111 60.4706C81.3084 60.039 81.6875 59.6044 82.0482 59.1671C82.7806 58.2792 83.4373 57.3801 84.0174 56.4719L84.0562 56.411L84.1014 56.3396C86.1968 53.0131 87.266 49.5656 87.266 46.0941C92.7476 46.0941 98.1756 47.1738 103.24 49.2715C103.716 49.4687 104.188 49.6746 104.656 49.8889C109.995 45.1118 113.355 38.1687 113.355 30.4408Z" fill="url(#paint0_linear)"/>
<path d="M92.6924 119.143C109.983 119.143 123.999 105.126 123.999 87.8361C123.999 70.5459 109.983 56.5295 92.6924 56.5295C92.6228 56.5295 92.5532 56.5298 92.4837 56.5302C92.4835 61.4635 90.3242 66.3484 86.1289 70.9061C82.6851 74.6474 77.9249 78.1081 72.0424 81.1573C70.7584 81.8229 69.4208 82.4689 68.0318 83.094C65.9413 84.0347 63.7452 84.923 61.4539 85.7558C55.2486 88.011 48.345 89.8588 40.9477 91.2377C30.8189 93.1256 19.963 94.0974 8.99969 94.0974V119.143H92.6924Z" fill="url(#paint1_linear)"/>
</g>
<path d="M9.00067 55.8856C15.1684 55.1203 21.2033 53.6791 26.9573 51.5936C35.9255 48.3432 43.9919 43.608 50.7255 37.7162C57.4565 31.8266 62.7097 24.9107 66.2623 17.406C66.6726 16.5394 67.0595 15.6663 67.423 14.7876C68.8041 11.4486 69.8469 8.02718 70.5468 4.56081C70.5608 4.49126 70.5747 4.42169 70.5885 4.3521H19.4362C13.6728 4.3521 9.00067 9.02423 9.00067 14.7876L9.00067 55.8856Z" fill="url(#paint2_radial)"/>
<path d="M113.356 30.4408C113.356 16.0324 101.675 4.35205 87.267 4.35205C85.48 4.35205 83.7351 4.5317 82.0492 4.87392C81.7192 4.9409 81.3915 5.01411 81.0662 5.09342C80.0493 10.8403 78.2494 16.4736 75.6944 21.871C72.545 28.5239 68.2945 34.7204 63.0916 40.2661C61.3635 42.1081 59.5302 43.8784 57.5973 45.5697C57.3964 45.7454 57.1946 45.9202 56.9918 46.0941C52.3545 50.0697 47.2126 53.5503 41.6755 56.4719C38.109 58.3537 34.3784 60.0037 30.5131 61.4046C25.249 63.3125 19.7884 64.7392 14.2184 65.6695C12.4889 65.9584 10.7487 66.1994 9.00067 66.3921V83.5884C10.746 83.5393 12.4861 83.4654 14.2184 83.3672C21.596 82.949 28.8321 82.0881 35.7309 80.8022C45.8596 78.9142 55.0628 76.147 62.815 72.6585C70.5673 69.17 76.7166 65.0286 80.9121 60.4706C81.3094 60.039 81.6885 59.6044 82.0492 59.1671C82.7816 58.2792 83.4383 57.3801 84.0184 56.4719L84.0572 56.411L84.1023 56.3396C86.1978 53.0131 87.267 49.5656 87.267 46.0941C92.7486 46.0941 98.1766 47.1738 103.241 49.2715C103.717 49.4687 104.189 49.6746 104.657 49.8889C109.996 45.1118 113.356 38.1687 113.356 30.4408Z" fill="url(#paint3_radial)"/>
<path d="M92.6934 119.143C109.984 119.143 124 105.126 124 87.8361C124 70.546 109.984 56.5296 92.6934 56.5296C92.6238 56.5296 92.5542 56.5298 92.4847 56.5302C92.4845 61.4635 90.3251 66.3484 86.1299 70.9061C82.6861 74.6474 77.9259 78.1081 72.0434 81.1573C70.7593 81.823 69.4218 82.469 68.0328 83.094C65.9423 84.0348 63.7462 84.923 61.4549 85.7558C55.2496 88.011 48.346 89.8589 40.9486 91.2377C30.8199 93.1256 19.9639 94.0974 9.00067 94.0974V119.143H92.6934Z" fill="url(#paint4_radial)"/>
<defs>
<filter id="filter0_d" x="-0.000305176" y="0.352051" width="130.999" height="130.791" filterUnits="userSpaceOnUse" color-interpolation-filters="sRGB">
<feFlood flood-opacity="0" result="BackgroundImageFix"/>
<feColorMatrix in="SourceAlpha" type="matrix" values="0 0 0 0 0 0 0 0 0 0 0 0 0 0 0 0 0 0 127 0"/>
<feOffset dx="-1" dy="4"/>
<feGaussianBlur stdDeviation="4"/>
<feColorMatrix type="matrix" values="0 0 0 0 0.133333 0 0 0 0 0.133333 0 0 0 0 0.133333 0 0 0 1 0"/>
<feBlend mode="normal" in2="BackgroundImageFix" result="effect1_dropShadow"/>
<feBlend mode="normal" in="SourceGraphic" in2="effect1_dropShadow" result="shape"/>
</filter>
<linearGradient id="paint0_linear" x1="82.0482" y1="4.35205" x2="82.0482" y2="83.5884" gradientUnits="userSpaceOnUse">
<stop stop-color="#FF005C"/>
<stop offset="1" stop-color="#FF002E"/>
</linearGradient>
<linearGradient id="paint1_linear" x1="110.399" y1="65.5637" x2="18.1048" y2="125.412" gradientUnits="userSpaceOnUse">
<stop stop-color="#BD00FF"/>
<stop offset="1" stop-color="#7634E0"/>
</linearGradient>
<radialGradient id="paint2_radial" cx="0" cy="0" r="1" gradientUnits="userSpaceOnUse" gradientTransform="translate(85.1202 32.1708) rotate(96.2484) scale(67.9435 64.7085)">
<stop offset="0.317708" stop-opacity="0"/>
<stop offset="1" stop-opacity="0.3"/>
</radialGradient>
<radialGradient id="paint3_radial" cx="0" cy="0" r="1" gradientUnits="userSpaceOnUse" gradientTransform="translate(85.1202 32.1708) rotate(96.2484) scale(67.9435 64.7085)">
<stop offset="0.317708" stop-opacity="0"/>
<stop offset="1" stop-opacity="0.3"/>
</radialGradient>
<radialGradient id="paint4_radial" cx="0" cy="0" r="1" gradientUnits="userSpaceOnUse" gradientTransform="translate(85.1202 32.1708) rotate(96.2484) scale(67.9435 64.7085)">
<stop offset="0.317708" stop-opacity="0"/>
<stop offset="1" stop-opacity="0.3"/>
</radialGradient>
</defs>
</svg>
